<svg width="24" height="24" viewBox="0 0 24 24" fill="none" xmlns="http://www.w3.org/2000/svg">
<path d="M14 9H18" stroke="#BDC1CF" stroke-width="1.5" stroke-linecap="round"/>
<path d="M14 12.5H17" stroke="#BDC1CF" stroke-width="1.5" stroke-linecap="round"/>
<path d="M17 3H7C4.23858 3 2 5.23858 2 8V16C2 18.7614 4.23858 21 7 21H17C19.7614 21 22 18.7614 22 16V8C22 5.23858 19.7614 3 17 3Z" stroke="#BDC1CF" stroke-width="1.5" stroke-linejoin="round"/>
<path d="M5 16C6.20831 13.4189 10.7122 13.2491 12 16" stroke="#BDC1CF" stroke-width="1.5" stroke-linecap="round" stroke-linejoin="round"/>
<path d="M10.5 9C10.5 10.1045 9.60457 11 8.5 11C7.39543 11 6.5 10.1045 6.5 9C6.5 7.89543 7.39543 7 8.5 7C9.60457 7 10.5 7.89543 10.5 9Z" stroke="#BDC1CF" stroke-width="1.5"/>
</svg>
