<svg width="36" height="36" viewBox="0 0 36 36" fill="none" xmlns="http://www.w3.org/2000/svg">
<rect width="36" height="36" rx="8" fill="#28C065" fill-opacity="0.17"/>
<path d="M27.5254 10.3825C27.756 11.0039 27.4392 11.6945 26.8179 11.925C25.5472 12.3964 24.1533 13.3777 22.7421 14.6742C21.3443 15.9584 19.9973 17.4884 18.8156 18.9725C17.6362 20.4535 16.6361 21.8701 15.9305 22.9173C15.5781 23.4403 15.3002 23.8697 15.1112 24.1669C15.0168 24.3155 14.9446 24.4309 14.8965 24.5084L14.8427 24.5955L14.8298 24.6167L14.8269 24.6215C14.6065 24.9847 14.2098 25.2054 13.7848 25.1999C13.3598 25.1943 12.9694 24.9644 12.7585 24.5953C11.6194 22.6019 10.6784 21.7044 10.1122 21.308C9.83089 21.1111 9.63947 21.0359 9.55529 21.0091C9.53542 21.0027 9.52082 20.9989 9.51165 20.9967C8.89035 20.9513 8.40039 20.4329 8.40039 19.8C8.40039 19.1372 8.93765 18.6 9.60039 18.6C9.74199 18.6095 10.0767 18.6473 10.283 18.722C10.6113 18.8265 11.0199 19.0139 11.4885 19.3418C12.1603 19.8121 12.9486 20.5663 13.8075 21.774C13.8505 21.7095 13.8947 21.6437 13.9401 21.5762C14.6706 20.4923 15.7086 19.0214 16.9382 17.4774C18.1653 15.9365 19.5977 14.3039 21.1184 12.9069C22.6256 11.5222 24.2889 10.3034 25.9829 9.67487C26.6043 9.44434 27.2949 9.76115 27.5254 10.3825Z" fill="#BDC1CF"/>
</svg>
