<svg width="24" height="24" viewBox="0 0 24 24" fill="none" xmlns="http://www.w3.org/2000/svg">
<path d="M7 8.5L9.94202 10.2394C11.6572 11.2535 12.3428 11.2535 14.058 10.2394L17 8.5" stroke="#BDC1CF" stroke-opacity="0.6" stroke-width="1.5" stroke-linecap="round" stroke-linejoin="round"/>
<path d="M2.01577 13.4756C2.08114 16.5411 2.11383 18.0739 3.24496 19.2093C4.37609 20.3448 5.95034 20.3843 9.09884 20.4634C11.0393 20.5122 12.9607 20.5122 14.9012 20.4634C18.0497 20.3843 19.6239 20.3448 20.755 19.2093C21.8862 18.0739 21.9189 16.5411 21.9842 13.4756C22.0053 12.4899 22.0053 11.51 21.9842 10.5244C21.9189 7.45886 21.8862 5.92609 20.755 4.79066C19.6239 3.65523 18.0497 3.61568 14.9012 3.53657C12.9607 3.48781 11.0393 3.48781 9.09882 3.53656C5.95034 3.61566 4.37609 3.65521 3.24496 4.79065C2.11383 5.92608 2.08114 7.45885 2.01577 10.5243C1.99474 11.51 1.99474 12.4899 2.01577 13.4756Z" stroke="#BDC1CF" stroke-opacity="0.6" stroke-width="1.5" stroke-linejoin="round"/>
</svg>
