<svg width="24" height="24" viewBox="0 0 24 24" fill="none" xmlns="http://www.w3.org/2000/svg">
<path d="M15 19C15 20.6569 13.6373 22 11.9759 22C10.3145 22 9 20.6569 9 19" stroke="#BDC1CF" stroke-opacity="0.6" stroke-width="1.5" stroke-linejoin="round"/>
<path d="M5 12V14L3 16.5V18C3 18.5523 3.44772 19 4 19H20C20.5523 19 21 18.5523 21 18V16.5L19 14V12C19 8.13401 15.866 5 12 5C8.13401 5 5 8.13401 5 12Z" stroke="#BDC1CF" stroke-opacity="0.6" stroke-width="1.5" stroke-linecap="round" stroke-linejoin="round"/>
<path d="M10.4388 3.31623L11.0001 5H13.0001L13.5614 3.31623C13.7772 2.6687 13.2952 2 12.6127 2H11.3875C10.705 2 10.223 2.6687 10.4388 3.31623Z" stroke="#BDC1CF" stroke-opacity="0.6" stroke-width="1.5" stroke-linecap="round" stroke-linejoin="round"/>
</svg>
